<?xml version="1.0" standalone="no"?>
<!DOCTYPE svg PUBLIC "-//W3C//DTD SVG 20010904//EN"
 "http://www.w3.org/TR/2001/REC-SVG-20010904/DTD/svg10.dtd">
<svg version="1.0" xmlns="http://www.w3.org/2000/svg"
 width="300.000000pt" height="300.000000pt" viewBox="0 0 300.000000 300.000000"
 preserveAspectRatio="xMidYMid meet">
<metadata>
Created by potrace 1.11, written by Peter Selinger 2001-2013
</metadata>
<g transform="translate(0.000000,300.000000) scale(0.100000,-0.100000)"
fill="#000000" stroke="none">
<path d="M1258 2874 c-2 -1 -26 -6 -53 -10 -135 -18 -320 -89 -450 -171 -187
-120 -328 -277 -429 -480 -89 -178 -126 -349 -121 -558 3 -114 9 -160 41 -300
25 -107 138 -329 211 -412 18 -21 33 -41 33 -45 0 -4 16 -22 35 -39 19 -18 32
-37 28 -43 -3 -6 -3 -8 1 -4 5 4 18 -3 31 -15 12 -12 32 -29 44 -37 11 -8 21
-20 21 -27 0 -7 10 -17 21 -24 17 -9 20 -8 14 3 -5 7 1 4 12 -7 11 -11 18 -23
16 -28 -2 -4 -1 -7 4 -6 19 3 34 -2 29 -10 -3 -5 2 -8 12 -7 9 0 16 -4 15 -11
-2 -8 4 -10 14 -6 11 4 14 3 9 -5 -5 -8 -1 -10 10 -5 14 5 16 3 11 -10 -5 -15
-3 -16 13 -7 15 8 22 6 32 -8 18 -26 84 -56 104 -48 15 6 15 4 3 -11 -8 -9 -9
-14 -2 -10 6 4 14 3 17 -2 3 -5 15 -7 26 -4 14 4 20 0 20 -10 0 -12 8 -15 30
-12 17 2 30 -1 30 -6 0 -6 4 -8 9 -5 5 3 14 -1 21 -9 9 -10 17 -12 30 -5 13 7
20 6 23 -3 3 -9 9 -9 27 1 12 8 19 9 15 3 -8 -14 8 -14 22 0 8 8 13 7 18 -2 5
-7 4 -10 -3 -5 -6 3 -14 1 -17 -5 -4 -5 -13 -8 -21 -5 -7 3 -16 1 -18 -3 -3
-4 9 -7 27 -6 18 1 38 -3 45 -8 9 -7 11 -5 6 9 -6 16 -2 15 21 -6 16 -14 25
-19 21 -12 -4 7 -1 12 8 12 8 0 20 -8 25 -17 8 -13 10 -14 11 -4 0 8 3 11 7 8
3 -4 17 0 31 9 13 8 26 13 30 10 3 -3 0 -6 -6 -6 -7 0 -12 -8 -11 -17 0 -12 2
-13 6 -5 4 10 8 10 19 1 12 -9 13 -9 9 4 -4 8 -2 18 4 21 15 10 53 -13 45 -26
-4 -7 -3 -8 5 -4 6 4 9 11 7 15 -3 4 4 13 16 20 11 7 18 9 15 4 -3 -4 1 -14 9
-21 8 -7 14 -9 14 -5 0 4 8 18 18 31 17 21 18 22 18 3 0 -11 -4 -18 -7 -15 -4
2 -10 0 -13 -5 -4 -5 -2 -12 3 -15 5 -4 12 -2 16 4 4 6 11 7 17 4 7 -4 8 -2 4
4 -4 6 1 11 11 12 51 2 73 6 73 11 0 3 13 4 30 3 27 -2 29 0 19 20 -10 17 -9
19 2 8 16 -15 65 -16 74 -1 4 6 13 8 21 5 8 -3 14 0 14 6 0 6 3 8 7 5 3 -4 12
-2 20 4 10 9 13 8 13 -2 0 -7 7 -3 16 9 13 19 19 21 30 11 9 -7 14 -8 13 -3
-4 23 3 33 21 29 12 -2 18 0 14 6 -3 6 2 9 12 7 13 -2 19 3 18 14 -2 17 16 20
27 5 3 -4 12 -1 19 8 11 13 10 15 -2 10 -8 -3 -21 2 -28 12 -11 14 -11 15 -1
6 7 -6 20 -9 28 -6 8 3 21 -3 29 -13 9 -11 13 -13 9 -6 -8 15 13 44 26 36 5
-3 6 2 3 10 -3 9 -9 14 -13 11 -4 -2 -8 2 -8 10 0 20 7 19 23 -2 9 -12 13 -14
14 -5 0 7 4 11 9 8 5 -3 15 2 22 11 12 14 11 15 -8 9 -12 -4 -24 -2 -28 3 -3
6 0 8 8 5 8 -3 23 3 33 13 17 17 17 17 11 1 -3 -10 -2 -18 3 -18 6 0 11 5 11
10 1 6 2 16 3 23 1 6 10 11 20 9 13 -2 17 2 14 15 -2 10 -11 17 -19 15 -8 -2
-10 0 -6 4 11 11 38 14 31 3 -3 -5 0 -9 6 -9 6 0 8 -5 4 -13 -6 -9 -5 -9 7 0
12 9 22 5 54 -25 22 -20 41 -44 43 -52 2 -8 12 -20 23 -28 11 -7 17 -17 14
-22 -3 -4 8 -21 24 -36 17 -15 28 -31 25 -36 -3 -4 2 -8 11 -8 10 0 13 -5 9
-12 -4 -6 -3 -8 4 -4 6 3 17 -2 24 -11 7 -10 20 -19 28 -21 8 -2 20 -8 25 -14
7 -8 6 -9 -3 -3 -11 6 -11 3 0 -14 7 -12 14 -17 16 -11 2 6 9 7 14 4 7 -4 8
-2 4 5 -4 6 -12 8 -18 5 -7 -5 -8 -2 -3 5 5 9 20 -1 51 -34 25 -25 41 -51 38
-57 -4 -7 -2 -8 4 -4 14 8 55 -17 45 -27 -3 -4 0 -7 8 -7 8 0 38 -22 67 -50
29 -27 55 -50 57 -50 7 0 44 -31 87 -72 21 -21 38 -35 38 -32 0 9 26 -20 33
-36 3 -8 6 86 6 210 l1 225 -42 37 c-24 20 -59 49 -78 64 -19 16 -37 32 -40
36 -3 4 -18 12 -34 18 -19 7 -26 15 -22 26 3 8 2 13 -2 10 -5 -3 -15 4 -23 16
-8 11 -20 26 -27 32 -7 6 -21 18 -30 26 -38 34 -83 61 -94 58 -6 -2 -20 4 -30
14 -10 10 -26 18 -35 18 -10 0 -40 21 -68 46 -27 24 -41 42 -30 38 17 -7 18
-5 8 8 -15 17 -7 29 13 21 10 -4 12 0 7 13 -4 11 -3 15 5 10 6 -3 14 -1 18 5
4 8 3 9 -4 5 -7 -4 -12 -2 -12 4 0 6 -5 8 -12 4 -7 -4 -8 -3 -4 4 4 6 14 8 22
5 10 -4 17 2 21 16 3 11 9 18 14 15 5 -3 9 0 9 5 0 6 -4 11 -10 11 -14 0 -12
13 6 36 15 19 15 18 5 -2 -7 -15 -7 -21 2 -21 7 0 13 11 14 25 0 14 7 29 15
34 10 8 9 9 -4 5 -9 -3 -22 2 -30 11 -8 9 -8 13 -1 9 6 -4 14 -1 16 5 4 10 6
10 6 1 1 -7 6 -13 11 -13 7 0 6 8 -1 23 -11 20 -11 21 5 8 9 -8 19 -11 23 -7
3 3 2 6 -4 6 -15 0 -3 53 16 68 14 12 14 13 -4 7 -16 -5 -18 -4 -7 6 6 7 12
17 12 22 0 4 -6 5 -12 1 -8 -4 -8 -2 1 7 10 11 15 11 18 2 3 -7 10 -13 16 -13
6 0 0 11 -13 25 -12 13 -27 22 -33 18 -6 -3 -7 -1 -3 6 6 9 11 9 21 1 18 -15
34 -5 30 18 -1 9 4 25 13 35 8 9 10 17 5 17 -6 0 -13 13 -15 30 -3 17 0 30 5
30 5 0 5 6 -1 13 -9 10 -7 19 5 36 15 22 15 23 -6 16 -13 -4 -21 -2 -21 5 0 6
4 9 9 5 5 -3 12 -1 16 5 4 6 11 7 17 4 7 -4 7 0 0 12 -5 11 -7 25 -5 32 3 6 0
12 -5 12 -6 0 -9 8 -7 18 1 9 8 16 16 14 9 -2 10 0 1 10 -6 7 -9 30 -8 50 2
23 -1 35 -7 31 -6 -4 -8 4 -5 20 4 20 2 24 -11 19 -12 -4 -11 0 4 18 l20 23
-23 -12 -23 -12 17 28 c10 16 12 23 4 16 -8 -7 -19 -13 -25 -13 -6 0 -6 3 2 8
23 15 20 64 -4 55 -15 -5 -14 -3 2 10 18 15 18 16 3 17 -10 0 -18 4 -18 10 0
5 6 8 13 6 6 -1 9 -1 4 1 -4 3 -5 9 -2 14 4 5 -1 6 -11 2 -14 -5 -15 -3 -4 17
11 21 10 22 -6 16 -10 -4 -15 -4 -12 0 4 3 1 18 -6 33 -14 28 -11 55 6 45 7
-4 8 -2 4 4 -4 6 -14 8 -22 5 -14 -5 -15 -3 -4 18 7 13 9 21 6 17 -12 -11 -45
24 -38 40 4 11 2 13 -9 7 -11 -7 -11 -5 1 10 12 15 12 17 1 10 -11 -6 -13 -4
-8 8 4 11 1 17 -8 17 -7 0 -17 5 -21 12 -5 7 -3 8 6 3 8 -5 2 7 -13 27 -15 19
-27 40 -27 46 0 7 -4 12 -8 12 -5 0 -15 12 -23 28 -8 15 -23 37 -34 48 -39 42
-60 69 -57 77 1 4 -1 7 -6 7 -4 0 -37 27 -72 60 -231 215 -521 328 -841 328
-70 0 -129 -2 -131 -4z m1375 -1118 c3 -8 -2 -20 -11 -28 -15 -12 -16 -11 -3
5 9 11 10 17 2 17 -6 0 -11 5 -11 10 0 15 17 12 23 -4z m2 -56 c3 -5 1 -10 -4
-10 -6 0 -11 5 -11 10 0 6 2 10 4 10 3 0 8 -4 11 -10z m1 -79 c0 -16 -3 -17
-14 -9 -12 10 -7 19 13 28 1 0 1 -9 1 -19z m-9 -187 c-9 -9 -28 6 -21 18 4 6
10 6 17 -1 6 -6 8 -13 4 -17z m-11 -40 c1 -9 -1 -13 -4 -9 -4 4 -7 12 -7 18
-1 7 -7 11 -14 9 -7 -1 -9 2 -6 9 9 13 28 -3 31 -27z m-113 -249 c-3 -9 -8
-14 -10 -11 -3 3 -2 9 2 15 9 16 15 13 8 -4z m-7 -55 c0 -12 -4 -16 -9 -11 -5
5 -6 14 -3 20 10 15 12 14 12 -9z m-66 -86 c0 -8 -19 -13 -24 -6 -3 5 1 9 9 9
8 0 15 -2 15 -3z m-340 -333 c0 -5 -7 -12 -16 -15 -14 -5 -15 -4 -4 9 14 17
20 19 20 6z m20 -25 c0 -3 -4 -8 -10 -11 -5 -3 -10 -1 -10 4 0 6 5 11 10 11 6
0 10 -2 10 -4z m-110 -50 c0 -2 -7 -7 -16 -10 -8 -3 -12 -2 -9 4 6 10 25 14
25 6z m-53 -38 c-3 -8 -6 -5 -6 6 -1 11 2 17 5 13 3 -3 4 -12 1 -19z m-29 -8
c-7 -10 -14 -17 -17 -15 -4 4 18 35 25 35 2 0 -1 -9 -8 -20z m-34 -20 c-6 -6
-15 -5 -24 1 -13 9 -12 10 3 5 9 -3 17 0 17 6 0 6 3 8 7 5 4 -4 2 -12 -3 -17z
m-75 -4 c9 -11 9 -16 -1 -22 -7 -4 -10 -4 -6 1 4 4 3 14 -3 22 -6 7 -9 13 -6
13 2 0 10 -6 16 -14z m-659 -31 c-7 -9 -15 -13 -19 -10 -3 3 1 10 9 15 21 14
24 12 10 -5z m540 -5 c0 -5 -5 -10 -11 -10 -5 0 -7 5 -4 10 3 6 8 10 11 10 2
0 4 -4 4 -10z m-30 -4 c0 -2 -8 -10 -17 -17 -16 -13 -17 -12 -4 4 13 16 21 21
21 13z m-264 -25 c-17 -18 -38 -22 -52 -8 -4 3 3 5 14 2 11 -2 26 3 33 11 6 8
14 14 17 14 3 0 -3 -9 -12 -19z"/>
<path d="M2561 2060 c14 -31 19 -36 19 -24 0 6 -7 19 -16 30 -14 18 -14 18 -3
-6z"/>
<path d="M2635 1540 c-3 -5 -1 -10 4 -10 6 0 11 5 11 10 0 6 -2 10 -4 10 -3 0
-8 -4 -11 -10z"/>
<path d="M2280 740 c-9 -6 -10 -10 -3 -10 6 0 15 5 18 10 8 12 4 12 -15 0z"/>
<path d="M1455 440 c3 -5 8 -10 11 -10 2 0 4 5 4 10 0 6 -5 10 -11 10 -5 0 -7
-4 -4 -10z"/>
</g>
</svg>
